# xmcd CD database file
#
# Track frame offsets:
#	150
#	17056
#	35787
#	53109
#	77816
#
# Disc length: 1345 seconds
#
# Revision: 0
# Processed by: cddbd v1.5.2PL0 Copyright (c) Steve Scherf et al.
# Submitted via: CDex 1.51
#
DISCID=39053f05
DTITLE=Chris E. Thomas - Long Day
DYEAR=2003
DGENRE=Country
TTITLE0=Long Day
TTITLE1=Not Right Now
TTITLE2=Tucson Man
TTITLE3=Had It All
TTITLE4=Say Goodbye
EXTD=YEAR: 2003
EXTT0=
EXTT1=
EXTT2=
EXTT3=
EXTT4=
PLAYORDER=
